<svg width="1024" height="1024" viewBox="0 0 1024 1024" fill="none" xmlns="http://www.w3.org/2000/svg">
<g clip-path="url(#clip0_2203_5737)">
<rect y="-4.57764e-05" width="1024" height="1024" fill="#B2C248"/>
<path d="M507.994 878.011C583.909 878.011 663.473 861.194 695.521 837.872C715.987 823.276 726.141 824.704 744.386 807.252C749.463 802.175 751.684 800.668 753.112 799.24C822.443 742.284 862.582 668.59 862.582 573.002C862.582 417.523 752.398 311.701 594.777 311.701C456.115 311.701 350.294 399.991 350.294 513.111C350.294 615.997 430.572 689.691 545.119 689.691C551.703 689.691 554.638 686.042 561.936 686.042C589.7 686.042 612.308 678.03 626.904 662.72C634.202 654.708 648.084 638.605 649.512 637.891C656.096 632.021 657.524 623.295 659.031 619.646C660.459 615.997 663.394 613.776 664.901 608.699C666.329 602.829 664.187 595.531 664.187 589.026C664.187 577.365 669.264 565.704 669.264 554.757C669.264 524.137 632.774 493.438 599.933 493.438C596.284 493.438 596.284 490.503 594.063 490.503C591.842 490.503 589.7 492.724 587.479 492.724C585.258 492.724 582.402 489.075 579.467 489.075C576.532 489.075 575.104 492.01 570.741 492.01C561.222 492.01 560.508 493.438 553.21 493.438C550.989 493.438 547.34 494.152 545.912 494.866C542.977 496.293 542.977 498.515 540.042 498.515C536.128 498.515 534.172 499.255 534.172 500.736C534.172 508.748 534.886 507.32 531.237 507.32C527.323 507.32 524.891 507.558 523.939 508.034C521.004 509.462 523.225 513.111 520.29 515.332C517.355 516.76 516.641 518.981 515.927 523.344C515.213 527.707 510.85 529.214 510.85 533.577C510.85 535.798 511.564 537.226 511.564 538.654C511.564 543.017 502.838 541.589 502.838 545.952C502.838 548.887 505.059 551.029 505.059 553.964C505.059 556.185 503.631 557.613 503.631 559.834C503.631 562.055 505.059 563.483 505.059 564.911C505.059 568.56 499.982 569.274 499.982 572.209C499.982 575.144 502.917 577.286 502.917 579.507C502.917 580.935 500.696 581.728 500.696 583.87C500.696 586.011 499.982 582.442 504.345 588.946C507.28 593.309 507.28 595.531 504.345 599.18C501.41 602.829 495.619 605.05 488.321 605.05C457.701 605.05 454.052 573.637 437.235 568.56C432.158 567.132 431.365 566.339 431.365 564.197C431.365 562.055 431.365 562.769 434.3 559.834C437.235 556.899 437.949 554.757 437.949 552.536C437.949 550.315 437.949 549.601 436.521 548.173C430.651 538.654 427.795 526.993 427.795 513.904C427.795 446.794 509.501 390.552 586.924 390.552C610.246 390.552 606.597 396.422 620.479 396.422C624.128 396.422 622.7 396.422 627.777 395.708C640.945 393.487 664.981 398.643 683.94 408.083C736.453 434.34 770.802 496.373 770.802 568.639C770.802 691.991 661.332 781.709 515.371 781.709C435.807 781.709 381.072 756.88 327.051 696.354C321.181 689.77 329.986 697.782 320.467 681.044C308.806 660.578 310.234 673.746 310.234 673.746C306.585 669.383 300.001 656.929 296.352 652.566C291.989 647.489 286.119 648.203 283.977 645.268C281.042 641.619 285.405 635.035 283.977 631.386C282.549 625.516 270.095 616.79 268.667 612.427C267.239 608.064 262.083 580.3 262.083 575.223C262.083 569.353 266.446 568.639 266.446 564.99C266.446 559.913 259.862 558.406 256.213 551.108C252.564 543.81 250.343 526.993 250.343 508.748C250.343 499.229 250.343 495.58 253.278 473.686C253.992 466.387 264.939 466.387 264.939 458.376C264.939 455.44 263.511 451.791 263.511 449.65C263.511 446.715 263.511 446.001 264.225 443.78C294.845 315.35 432.079 219.762 584.623 219.762C637.137 219.762 677.276 229.282 739.309 255.539C759.775 264.264 789.681 248.954 789.681 232.931C791.109 227.854 788.253 226.346 787.46 223.411C786.746 220.476 783.811 216.827 780.876 216.113C779.448 215.399 778.655 213.178 777.227 211.037C775.006 207.388 772.864 205.96 766.994 204.452C764.059 203.739 762.631 203.025 761.124 201.517C758.903 198.582 757.475 197.154 754.54 195.647C751.605 194.219 749.463 195.647 747.956 194.933C746.528 194.219 745.735 192.712 744.307 191.998C743.593 191.284 742.086 191.284 739.944 191.284C666.329 151.859 618.178 145.989 554.003 145.989C415.341 145.989 291.275 205.88 214.646 310.194C208.062 318.92 211.711 333.516 202.271 342.321C184.026 359.139 161.418 451.078 161.418 509.462C161.418 558.327 173.079 623.295 188.389 659.071C218.295 729.116 205.206 699.924 209.569 706.508C218.295 720.39 225.593 721.818 229.242 726.181C229.242 726.181 231.463 730.544 231.463 734.907C231.463 737.842 231.463 738.556 232.177 739.984C234.398 744.346 244.552 751.644 247.487 754.58C254.071 761.164 259.148 775.046 270.095 785.993C286.912 802.81 310.948 815.899 387.577 851.675C414.548 864.05 399.238 857.545 402.173 858.259C408.757 860.48 417.483 860.48 422.639 864.129C425.574 866.35 421.925 865.557 429.937 865.557C431.365 865.557 431.365 866.271 432.872 866.985C434.3 867.699 435.807 869.92 437.949 869.92C439.377 869.92 440.17 868.492 442.312 869.206C444.454 869.92 449.61 873.569 453.973 875.79C457.622 878.011 458.336 878.011 459.843 876.504C464.206 873.569 467.141 877.218 471.504 877.218C472.932 877.218 475.153 876.504 479.516 876.504C485.386 876.504 485.386 877.932 507.994 877.932" fill="#1E1E1E"/>
</g>
<defs>
<clipPath id="clip0_2203_5737">
<rect width="1024" height="1024" fill="white"/>
</clipPath>
</defs>
</svg>
